<svg width="150" height="170" viewBox="0 0 150 170" fill="none" xmlns="http://www.w3.org/2000/svg">
<g clip-path="url(#clip0_28_2)">
<path d="M131.5 32.8C131.4 31.9 130.6 31.5 130 31.5C129.4 31.5 116.3 30.5 116.3 30.5C116.3 30.5 107.2 21.4 106.1 20.5C105.1 19.5 103.2 19.8 102.4 20C102.3 20 100.4 20.6 97.3 21.6C94.2 12.7 88.9 4.60001 79.4 4.60001H78.5C75.9 1.20001 72.5 -0.399994 69.7 -0.399994C47.7 -0.399994 37.1 27.1 33.8 41.1C25.2 43.8 19.1 45.6 18.4 45.9C13.6 47.4 13.5 47.5 12.9 52C12.4 55.4 -0.0999756 152.1 -0.0999756 152.1L97.2 170.3L150 158.9C150.1 158.7 131.6 33.7 131.5 32.8ZM91.9 23C89.5 23.7 86.6 24.6 83.7 25.6V23.8C83.7 18.4 83 14 81.7 10.5C86.7 11.1 89.8 16.6 91.9 23ZM75.6 11.6C76.9 15 77.8 19.8 77.8 26.4V27.4C72.4 29.1 66.7 30.8 60.8 32.7C64.1 20.1 70.4 13.9 75.6 11.6ZM69.2 5.39999C70.2 5.39999 71.2 5.79999 72 6.39999C64.9 9.69999 57.4 18 54.3 34.8C49.6 36.3 45.1 37.6 40.8 39C44.4 26.2 53.4 5.39999 69.2 5.39999Z" fill="#BF4749"/>
<path d="M130 31.3C129.4 31.3 116.3 30.3 116.3 30.3C116.3 30.3 107.2 21.2 106.1 20.3C105.7 19.9 105.2 19.7 104.8 19.7L97.5 170.3L150.3 158.9C150.3 158.9 131.8 33.7 131.7 32.8C131.3 31.9 130.6 31.5 130 31.3Z" fill="#8E3E3F"/>
<path d="M79.4 60.5L73 79.8C73 79.8 67.2 76.7 60.3 76.7C50 76.7 49.5 83.2 49.5 84.8C49.5 93.6 72.5 97 72.5 117.7C72.5 134 62.2 144.5 48.3 144.5C31.5 144.5 23.1 134.1 23.1 134.1L27.6 119.3C27.6 119.3 36.4 126.9 43.8 126.9C48.7 126.9 50.7 123.1 50.7 120.3C50.7 108.8 31.9 108.3 31.9 89.3C31.9 73.4 43.3 58 66.4 58C75 57.9 79.4 60.5 79.4 60.5Z" fill="white"/>
</g>
<defs>
<clipPath id="clip0_28_2">
<rect width="150" height="170" fill="white"/>
</clipPath>
</defs>
</svg>
